<svg width="360" height="351" viewBox="0 0 360 351" fill="none" xmlns="http://www.w3.org/2000/svg">
<rect width="359" height="349" rx="37" fill="#808080"/>
<mask id="mask0_1538_4598" style="mask-type:alpha" maskUnits="userSpaceOnUse" x="1" y="0" width="359" height="351">
<rect x="1" width="359" height="350.723" rx="37" fill="black"/>
</mask>
<g mask="url(#mask0_1538_4598)">
<path d="M11.4549 350.665L72.3972 284.96C73.911 283.328 76.0365 282.401 78.2626 282.401H130.456C131.923 282.401 133.362 281.997 134.616 281.234L180.051 253.574C182.436 252.123 183.891 249.533 183.891 246.741V212.606C183.891 211.655 184.061 210.712 184.392 209.821L195.515 179.868C195.846 178.977 196.016 178.034 196.016 177.083V139.522C196.016 138.812 195.921 138.105 195.734 137.42L186.642 104.034C185.257 98.946 189.087 93.9324 194.361 93.9324H225.653H249.902H279.137C281.901 93.9324 284.469 92.5061 285.929 90.1601L310.923 50.0088C313.535 45.8122 311.754 40.2744 307.185 38.3871L288.526 30.6793C285.533 29.4428 283.581 26.5238 283.581 23.2853V-14.3997V-35.1758" stroke="black" stroke-width="28" stroke-linecap="round"/>
<path d="M11.4549 350.665L72.3972 284.96C73.911 283.328 76.0365 282.401 78.2626 282.401H130.456C131.923 282.401 133.362 281.997 134.616 281.234L180.051 253.574C182.436 252.123 183.891 249.533 183.891 246.741V212.606C183.891 211.655 184.061 210.712 184.392 209.821L195.515 179.868C195.846 178.977 196.016 178.034 196.016 177.083V139.522C196.016 138.812 195.921 138.105 195.734 137.42L186.642 104.035C185.257 98.946 189.087 93.9324 194.361 93.9324H225.653H249.902H279.137C281.901 93.9324 284.469 92.5061 285.929 90.1601L310.923 50.0088C313.535 45.8122 311.754 40.2744 307.185 38.3871L288.526 30.6793C285.533 29.4428 283.581 26.5238 283.581 23.2853V-14.3997V-35.1758" stroke="#2B2B2B" stroke-width="3" stroke-linecap="round" stroke-dasharray="6 6"/>
<path d="M11.3459 350.717L72.2661 285.033C73.78 283.401 75.9055 282.473 78.1317 282.473H130.304C131.772 282.473 133.211 282.07 134.464 281.306L179.882 253.656C182.267 252.205 183.722 249.615 183.722 246.823V211.263" stroke="#DCFF00" stroke-width="8" stroke-linecap="round"/>
<circle cx="76.6092" cy="284.166" r="10.8631" fill="#808080"/>
<circle cx="189.863" cy="98.7249" r="10.8631" fill="#808080"/>
</g>
<g clip-path="url(#clip0_1538_4598)">
<path d="M183.723 134.704C176.409 134.712 169.396 137.621 164.224 142.794C159.052 147.966 156.143 154.978 156.135 162.293C156.135 176.865 179.309 196.87 181.941 199.105L183.723 200.611L185.506 199.105C188.138 196.87 211.312 176.865 211.312 162.293C211.304 154.978 208.395 147.966 203.223 142.794C198.051 137.621 191.038 134.712 183.723 134.704V134.704ZM183.723 176.087C180.995 176.087 178.328 175.278 176.06 173.763C173.791 172.247 172.023 170.092 170.979 167.572C169.935 165.051 169.662 162.278 170.194 159.602C170.726 156.926 172.04 154.468 173.969 152.539C175.898 150.61 178.356 149.296 181.032 148.764C183.708 148.231 186.482 148.505 189.002 149.549C191.523 150.593 193.677 152.361 195.193 154.629C196.709 156.898 197.518 159.565 197.518 162.293C197.513 165.95 196.059 169.456 193.473 172.042C190.887 174.628 187.381 176.083 183.723 176.087V176.087Z" fill="#F72D2D"/>
<path d="M183.723 170.57C188.294 170.57 192 166.865 192 162.294C192 157.723 188.294 154.017 183.723 154.017C179.152 154.017 175.446 157.723 175.446 162.294C175.446 166.865 179.152 170.57 183.723 170.57Z" fill="#F72D2D"/>
</g>
<defs>
<clipPath id="clip0_1538_4598">
<rect width="66.2133" height="66.2133" fill="white" transform="translate(150.616 134.704)"/>
</clipPath>
</defs>
</svg>
