<svg width="361" height="482" viewBox="0 0 361 482" fill="none" xmlns="http://www.w3.org/2000/svg">
<rect x="0.5" y="0.5" width="360" height="481" rx="41.5" fill="#424D00" stroke="#DCFF00"/>
<rect x="7" y="9" width="347" height="464" rx="37" fill="#464646"/>
<path d="M40 441V433.631C40 429.213 43.5817 425.631 48 425.631H57.1191H60.4682C63.7948 425.631 66.7743 423.573 67.951 420.461L70.3809 414.035C71.5576 410.924 74.5371 408.865 77.8637 408.865H97.3018C99.9318 408.865 102.394 407.573 103.887 405.408L111.164 394.858C112.657 392.693 115.119 391.401 117.749 391.401H124.227C125.542 391.401 126.837 391.077 127.996 390.457L147.153 380.223L168.547 365.407C169.077 365.04 169.649 364.739 170.251 364.509L184.085 359.233C185.233 358.795 186.264 358.099 187.1 357.198L213.256 328.993C214.769 327.36 216.895 326.433 219.121 326.433H240.65C242.117 326.433 243.557 326.029 244.81 325.266L263.148 314.1C265.532 312.648 266.987 310.059 266.987 307.267V294.338C266.987 293.387 267.157 292.444 267.488 291.553L272.193 278.879C272.524 277.988 272.694 277.045 272.694 276.095V259.74C272.694 259.03 272.599 258.323 272.413 257.638L269.738 247.815C268.352 242.726 272.183 237.713 277.457 237.713H286.643H298.055H309.462C312.226 237.713 314.794 236.286 316.254 233.94L324.135 221.278C326.746 217.082 324.966 211.545 320.398 209.657L318.851 209.018C315.859 207.782 313.906 204.863 313.906 201.625V186.716V178.343C313.906 177.412 314.069 176.489 314.387 175.613L322.078 154.427C322.54 153.154 323.319 152.019 324.339 151.128L326.207 149.499C331.126 145.209 329.114 137.152 322.756 135.677L314.798 133.831C314.206 133.694 313.599 133.624 312.991 133.624H298.055H289.091C287.495 133.624 285.936 133.147 284.614 132.254L269.016 121.721C267.694 120.828 266.135 120.351 264.539 120.351H250.502H236.553H223.872H208.118C207.259 120.351 206.451 120.758 205.939 121.447C204.381 123.546 201.047 122.444 201.047 119.829V117.784C201.047 117.178 200.884 116.583 200.577 116.061L193.318 103.758C192.977 103.179 192.564 102.646 192.089 102.171L187.151 97.2244C186.282 96.3537 185.224 95.6952 184.058 95.3002L178.837 93.5299C178.009 93.2495 177.142 93.1064 176.268 93.1064H159.701C157.013 93.1064 154.505 91.7567 153.024 89.5135L151.119 86.6271C150.6 85.841 150.323 84.9199 150.323 83.978V76.2985C150.323 74.0947 147.51 73.1696 146.202 74.9433C144.894 76.717 142.081 75.7918 142.081 73.588V67.0567C142.081 66.7268 142.044 66.3979 141.971 66.0762L137.643 47" stroke="#808080" stroke-width="9" stroke-linecap="round"/>
<path d="M40 441V433.631C40 429.213 43.5817 425.631 48 425.631H57.1191H60.4682C63.7948 425.631 66.7743 423.573 67.951 420.461L70.3809 414.035C71.5576 410.924 74.5371 408.865 77.8637 408.865H97.3018C99.9318 408.865 102.394 407.573 103.887 405.408L111.164 394.858C112.657 392.693 115.119 391.401 117.749 391.401H124.227C125.542 391.401 126.837 391.077 127.996 390.457L147.153 380.223L168.547 365.407C169.077 365.04 169.649 364.739 170.251 364.509L184.085 359.233C185.233 358.795 186.264 358.099 187.1 357.198L213.256 328.993C214.769 327.36 216.895 326.433 219.121 326.433H240.65C242.117 326.433 243.557 326.029 244.81 325.266L263.148 314.1C265.532 312.648 266.987 310.059 266.987 307.267V294.338C266.987 293.387 267.157 292.444 267.488 291.553L272.193 278.879C272.524 277.988 272.694 277.045 272.694 276.095V259.74C272.694 259.03 272.599 258.323 272.413 257.638L269.738 247.815C268.352 242.726 272.183 237.713 277.457 237.713H286.643H298.055H309.462C312.226 237.713 314.794 236.286 316.254 233.94L324.135 221.278C326.746 217.082 324.966 211.545 320.398 209.657L318.851 209.018C315.859 207.782 313.906 204.863 313.906 201.625V186.716V178.343C313.906 177.412 314.069 176.489 314.387 175.613L322.078 154.427C322.54 153.154 323.319 152.019 324.339 151.128L326.207 149.499C331.126 145.209 329.114 137.152 322.756 135.677L314.798 133.831C314.206 133.694 313.599 133.624 312.991 133.624H298.055H289.091C287.495 133.624 285.936 133.147 284.614 132.254L269.016 121.721C267.694 120.828 266.135 120.351 264.539 120.351H250.502H236.553H223.872H208.118C207.259 120.351 206.451 120.758 205.939 121.447C204.381 123.546 201.047 122.444 201.047 119.829V117.784C201.047 117.178 200.884 116.583 200.577 116.061L193.318 103.758C192.977 103.179 192.564 102.646 192.089 102.171L187.151 97.2244C186.282 96.3537 185.224 95.6952 184.058 95.3002L178.837 93.5299C178.009 93.2495 177.142 93.1064 176.268 93.1064H159.701C157.013 93.1064 154.505 91.7567 153.024 89.5135L151.119 86.6271C150.6 85.841 150.323 84.9199 150.323 83.978V76.2985C150.323 74.0947 147.51 73.1696 146.202 74.9433C144.894 76.717 142.081 75.7918 142.081 73.588V67.0567C142.081 66.7268 142.044 66.3979 141.971 66.0762L137.643 47" stroke="#2B2B2B" stroke-width="2" stroke-linecap="round" stroke-dasharray="4 4"/>
<circle cx="137" cy="43" r="10" fill="black"/>
<circle cx="203" cy="120" r="10" fill="black"/>
<circle cx="328" cy="137" r="10" fill="black"/>
<circle cx="269" cy="240" r="10" fill="black"/>
<circle cx="216" cy="328" r="10" fill="black"/>
<circle cx="113" cy="394" r="10" fill="black"/>
<circle cx="40" cy="442" r="10" fill="black"/>
<path d="M39.5002 396C36.0756 396.004 32.7924 397.366 30.3709 399.787C27.9493 402.209 26.5873 405.492 26.5835 408.917C26.5835 415.739 37.4335 425.105 38.6657 426.151L39.5002 426.857L40.3346 426.151C41.5668 425.105 52.4168 415.739 52.4168 408.917C52.4131 405.492 51.051 402.209 48.6295 399.787C46.2079 397.366 42.9247 396.004 39.5002 396V396ZM39.5002 415.375C38.2228 415.375 36.9742 414.996 35.9121 414.287C34.85 413.577 34.0223 412.568 33.5334 411.388C33.0446 410.208 32.9167 408.91 33.1659 407.657C33.4151 406.404 34.0302 405.253 34.9334 404.35C35.8366 403.447 36.9874 402.832 38.2402 402.582C39.493 402.333 40.7916 402.461 41.9717 402.95C43.1518 403.439 44.1604 404.267 44.8701 405.329C45.5797 406.391 45.9585 407.639 45.9585 408.917C45.9564 410.629 45.2754 412.27 44.0646 413.481C42.8539 414.692 41.2124 415.373 39.5002 415.375Z" fill="#DCFF00"/>
<path d="M39.5 412.792C41.6401 412.792 43.375 411.057 43.375 408.917C43.375 406.777 41.6401 405.042 39.5 405.042C37.3599 405.042 35.625 406.777 35.625 408.917C35.625 411.057 37.3599 412.792 39.5 412.792Z" fill="#DCFF00"/>
</svg>
