<svg width="24" height="18" viewBox="0 0 24 18" fill="none" xmlns="http://www.w3.org/2000/svg">
<path d="M14.4021 5.77838C14.2189 5.77838 14.0662 5.71972 13.944 5.60239C13.8219 5.48506 13.7608 5.34167 13.7608 5.1722C13.7608 5.00272 13.8219 4.86095 13.944 4.74688C14.0662 4.63281 14.2189 4.57578 14.4021 4.57578H19.9593C20.1358 4.57578 20.285 4.63281 20.4072 4.74688C20.5293 4.86095 20.5904 5.00272 20.5904 5.1722C20.5904 5.34167 20.5293 5.48506 20.4072 5.60239C20.285 5.71972 20.1358 5.77838 19.9593 5.77838H14.4021ZM14.4021 9.61109C14.2189 9.61109 14.0662 9.55243 13.944 9.4351C13.8219 9.31777 13.7608 9.17111 13.7608 8.99512C13.7608 8.83216 13.8219 8.69365 13.944 8.57959C14.0662 8.46552 14.2189 8.40848 14.4021 8.40848H19.9593C20.1358 8.40848 20.285 8.46552 20.4072 8.57959C20.5293 8.69365 20.5904 8.83216 20.5904 8.99512C20.5904 9.17111 20.5293 9.31777 20.4072 9.4351C20.285 9.55243 20.1358 9.61109 19.9593 9.61109H14.4021ZM14.4021 13.434C14.2189 13.434 14.0662 13.377 13.944 13.2629C13.8219 13.1489 13.7608 13.0103 13.7608 12.8473C13.7608 12.6779 13.8219 12.5329 13.944 12.4123C14.0662 12.2917 14.2189 12.2314 14.4021 12.2314H19.9593C20.1358 12.2314 20.285 12.2917 20.4072 12.4123C20.5293 12.5329 20.5904 12.6779 20.5904 12.8473C20.5904 13.0103 20.5293 13.1489 20.4072 13.2629C20.285 13.377 20.1358 13.434 19.9593 13.434H14.4021ZM3.79645 13.5024C3.63359 13.5024 3.50976 13.4535 3.42494 13.3558C3.34012 13.258 3.29771 13.1375 3.29771 12.994C3.29771 12.7594 3.38762 12.4612 3.56744 12.0995C3.74725 11.7377 4.02206 11.3727 4.39187 11.0043C4.76167 10.6361 5.22647 10.3281 5.78627 10.0804C6.34607 9.83273 7.00595 9.70887 7.76592 9.70887C8.52588 9.70887 9.18746 9.83273 9.75066 10.0804C10.3138 10.3281 10.7803 10.6361 11.1501 11.0043C11.52 11.3727 11.7948 11.7377 11.9746 12.0995C12.1544 12.4612 12.2443 12.7594 12.2443 12.994C12.2443 13.1375 12.2019 13.258 12.1171 13.3558C12.0323 13.4535 11.9084 13.5024 11.7455 13.5024H3.79645ZM7.76592 9.02445C7.15523 9.02445 6.63106 8.80283 6.19339 8.3596C5.75574 7.91636 5.53691 7.35905 5.53691 6.68768C5.53691 6.27051 5.63699 5.8892 5.83717 5.54373C6.03733 5.19827 6.30705 4.92124 6.64632 4.71266C6.98559 4.50408 7.35879 4.39979 7.76592 4.39979C8.17983 4.39979 8.55473 4.50408 8.8906 4.71266C9.22648 4.92124 9.4945 5.19827 9.69468 5.54373C9.89484 5.8892 9.99493 6.27051 9.99493 6.68768C9.99493 7.35905 9.77779 7.91636 9.34353 8.3596C8.90926 8.80283 8.38339 9.02445 7.76592 9.02445ZM3.19594 18H20.8041C21.8762 18 22.6769 17.7474 23.2061 17.2423C23.7354 16.7371 24 15.9826 24 14.9788V3.03096C24 2.02716 23.7354 1.27105 23.2061 0.76263C22.6769 0.25421 21.8762 0 20.8041 0H3.19594C2.13062 0 1.33164 0.25258 0.798984 0.757741C0.266328 1.2629 0 2.02064 0 3.03096V14.9788C0 15.9826 0.266328 16.7371 0.798984 17.2423C1.33164 17.7474 2.13062 18 3.19594 18Z" fill="white"/>
</svg>
