<svg width="18" height="18" viewBox="0 0 18 18" fill="none" xmlns="http://www.w3.org/2000/svg">
<path d="M4.93203 13.0372C5.86407 13.9677 6.84789 14.8077 7.88348 15.5574C8.91908 16.307 9.95468 16.9015 10.9903 17.3408C12.0259 17.7803 13.0065 18 13.932 18C14.5598 18 15.1456 17.8869 15.6892 17.6607C16.233 17.4346 16.7249 17.0792 17.165 16.5945C17.4239 16.3102 17.6278 16.0048 17.7767 15.6785C17.9256 15.3522 18 15.0242 18 14.6946C18 14.4491 17.9515 14.2148 17.8544 13.9919C17.7573 13.769 17.5922 13.5768 17.3592 13.4152L14.3786 11.3021C14.1521 11.147 13.9417 11.0307 13.7475 10.9532C13.5534 10.8756 13.3689 10.8368 13.1942 10.8368C12.9741 10.8368 12.7605 10.8966 12.5534 11.0162C12.3463 11.1357 12.1327 11.3053 11.9126 11.5251L11.2233 12.2035C11.1262 12.3069 11.0032 12.3586 10.8544 12.3586C10.7767 12.3586 10.7039 12.3457 10.6359 12.3198C10.5679 12.294 10.5113 12.2714 10.466 12.252C10.1618 12.0904 9.77347 11.8109 9.30096 11.4135C8.82847 11.0162 8.35274 10.5784 7.87377 10.1001C7.40128 9.62193 6.96439 9.14697 6.56309 8.67528C6.1618 8.20355 5.88348 7.81906 5.72815 7.52181C5.70226 7.47011 5.67799 7.41033 5.65533 7.34249C5.63268 7.27464 5.62135 7.20517 5.62135 7.13408C5.62135 6.99192 5.6699 6.87237 5.76698 6.77544L6.4563 6.06785C6.66989 5.84814 6.83818 5.6349 6.96115 5.42811C7.08413 5.22133 7.14562 5.00808 7.14562 4.78836C7.14562 4.61389 7.10517 4.42972 7.02426 4.23586C6.94336 4.042 6.822 3.83198 6.66018 3.60582L4.57281 0.668817C4.40452 0.436186 4.20387 0.266558 3.97087 0.159935C3.73786 0.0533118 3.4919 0 3.233 0C2.56634 0 1.94174 0.281097 1.35922 0.843291C0.886731 1.29564 0.54207 1.79483 0.325242 2.34087C0.108414 2.88691 0 3.47011 0 4.09047C0 5.021 0.216828 5.99838 0.650485 7.02261C1.08414 8.04684 1.67313 9.07269 2.41747 10.1001C3.16181 11.1276 4 12.1066 4.93203 13.0372Z" fill="white"/>
</svg>
