<svg width="16" height="20" viewBox="0 0 16 20" fill="none" xmlns="http://www.w3.org/2000/svg">
<path d="M2.30775 19.5C1.80908 19.5 1.38308 19.3234 1.02975 18.9703C0.676583 18.6169 0.5 18.1909 0.5 17.6923V8.30775C0.5 7.80908 0.676583 7.38308 1.02975 7.02975C1.38308 6.67658 1.80908 6.5 2.30775 6.5H3.5V4.5C3.5 3.25133 3.93783 2.18917 4.8135 1.3135C5.68917 0.437833 6.75133 0 8 0C9.24867 0 10.3108 0.437833 11.1865 1.3135C12.0622 2.18917 12.5 3.25133 12.5 4.5V6.5H13.6923C14.1909 6.5 14.6169 6.67658 14.9703 7.02975C15.3234 7.38308 15.5 7.80908 15.5 8.30775V17.6923C15.5 18.1909 15.3234 18.6169 14.9703 18.9703C14.6169 19.3234 14.1909 19.5 13.6923 19.5H2.30775ZM2.30775 18H13.6923C13.7821 18 13.8558 17.9712 13.9135 17.9135C13.9712 17.8558 14 17.7821 14 17.6923V8.30775C14 8.21792 13.9712 8.14417 13.9135 8.0865C13.8558 8.02883 13.7821 8 13.6923 8H2.30775C2.21792 8 2.14417 8.02883 2.0865 8.0865C2.02883 8.14417 2 8.21792 2 8.30775V17.6923C2 17.7821 2.02883 17.8558 2.0865 17.9135C2.14417 17.9712 2.21792 18 2.30775 18ZM8 14.75C8.48583 14.75 8.899 14.5798 9.2395 14.2395C9.57983 13.899 9.75 13.4858 9.75 13C9.75 12.5142 9.57983 12.101 9.2395 11.7605C8.899 11.4202 8.48583 11.25 8 11.25C7.51417 11.25 7.101 11.4202 6.7605 11.7605C6.42017 12.101 6.25 12.5142 6.25 13C6.25 13.4858 6.42017 13.899 6.7605 14.2395C7.101 14.5798 7.51417 14.75 8 14.75ZM5 6.5H11V4.5C11 3.66667 10.7083 2.95833 10.125 2.375C9.54167 1.79167 8.83333 1.5 8 1.5C7.16667 1.5 6.45833 1.79167 5.875 2.375C5.29167 2.95833 5 3.66667 5 4.5V6.5Z" fill="white"/>
</svg>
