<svg width="20" height="20" viewBox="0 0 20 20" fill="none" xmlns="http://www.w3.org/2000/svg">
<path d="M9.99018 15.9607C10.4281 15.9607 10.7974 15.8072 11.098 15.5C11.3987 15.1928 11.549 14.8235 11.549 14.3921C11.549 14.0784 11.464 13.7941 11.2941 13.5392C11.1242 13.2843 10.9052 13.098 10.6372 12.9804V8.39215C10.6372 8.2026 10.5735 8.04411 10.4461 7.91665C10.3186 7.7892 10.1666 7.72548 9.99018 7.72548C9.82025 7.72548 9.67156 7.7892 9.54411 7.91665C9.41666 8.04411 9.35293 8.2026 9.35293 8.39215V12.9804C9.07842 13.098 8.8562 13.2843 8.68626 13.5392C8.51633 13.7941 8.43137 14.0784 8.43137 14.3921C8.43137 14.8235 8.58332 15.1928 8.88725 15.5C9.19116 15.8072 9.55881 15.9607 9.99018 15.9607ZM5.10784 8.49999C5.37581 8.49999 5.60293 8.40522 5.78921 8.21567C5.97548 8.02613 6.06862 7.80064 6.06862 7.53921C6.06862 7.27124 5.97548 7.04248 5.78921 6.85293C5.60293 6.66339 5.37581 6.56862 5.10784 6.56862C4.83986 6.56862 4.61274 6.66339 4.42647 6.85293C4.24019 7.04248 4.14705 7.27124 4.14705 7.53921C4.14705 7.80064 4.24019 8.02613 4.42647 8.21567C4.61274 8.40522 4.83986 8.49999 5.10784 8.49999ZM7.03921 6.43136C7.30718 6.43136 7.53431 6.33659 7.72058 6.14705C7.90685 5.95751 7.99999 5.72875 7.99999 5.46077C7.99999 5.19934 7.90685 4.97385 7.72058 4.7843C7.53431 4.59476 7.30718 4.49999 7.03921 4.49999C6.77777 4.49999 6.55228 4.59476 6.36274 4.7843C6.1732 4.97385 6.07843 5.19934 6.07843 5.46077C6.07843 5.72875 6.1732 5.95751 6.36274 6.14705C6.55228 6.33659 6.77777 6.43136 7.03921 6.43136ZM9.99018 5.55882C10.2582 5.55882 10.4853 5.46405 10.6716 5.27451C10.8578 5.08496 10.951 4.85947 10.951 4.59804C10.951 4.33006 10.8578 4.10294 10.6716 3.91666C10.4853 3.73039 10.2582 3.63725 9.99018 3.63725C9.72875 3.63725 9.50326 3.73039 9.31371 3.91666C9.12417 4.10294 9.0294 4.33006 9.0294 4.59804C9.0294 4.85947 9.12417 5.08496 9.31371 5.27451C9.50326 5.46405 9.72875 5.55882 9.99018 5.55882ZM12.8137 6.43136C13.0817 6.43136 13.3088 6.33496 13.4951 6.14214C13.6814 5.94934 13.7745 5.72222 13.7745 5.46077C13.7745 5.1928 13.6814 4.96404 13.4951 4.7745C13.3088 4.58496 13.0817 4.49019 12.8137 4.49019C12.5458 4.49019 12.3186 4.58496 12.1324 4.7745C11.946 4.96404 11.8529 5.1928 11.8529 5.46077C11.8529 5.72222 11.946 5.94934 12.1324 6.14214C12.3186 6.33496 12.5458 6.43136 12.8137 6.43136ZM14.7451 8.50979C15.0131 8.50979 15.2402 8.41502 15.4264 8.22548C15.6127 8.03594 15.7058 7.81045 15.7058 7.54901C15.7058 7.28104 15.6127 7.05228 15.4264 6.86274C15.2402 6.67319 15.0131 6.57842 14.7451 6.57842C14.4837 6.57842 14.2582 6.67319 14.0686 6.86274C13.8791 7.05228 13.7843 7.28104 13.7843 7.54901C13.7843 7.81045 13.8791 8.03594 14.0686 8.22548C14.2582 8.41502 14.4837 8.50979 14.7451 8.50979ZM9.99999 20C11.366 20 12.652 19.7385 13.8578 19.2156C15.0637 18.6928 16.1274 17.9706 17.049 17.049C17.9706 16.1274 18.6928 15.0637 19.2156 13.8578C19.7385 12.652 20 11.366 20 9.99999C20 8.63398 19.7385 7.34803 19.2156 6.14214C18.6928 4.93627 17.9706 3.87255 17.049 2.95097C16.1274 2.02941 15.0621 1.30719 13.8529 0.784313C12.6438 0.261438 11.3562 0 9.99018 0C8.62417 0 7.33823 0.261438 6.13235 0.784313C4.92646 1.30719 3.86437 2.02941 2.94607 2.95097C2.02778 3.87255 1.30719 4.93627 0.784313 6.14214C0.261438 7.34803 0 8.63398 0 9.99999C0 11.366 0.261438 12.652 0.784313 13.8578C1.30719 15.0637 2.02941 16.1274 2.95097 17.049C3.87255 17.9706 4.93627 18.6928 6.14214 19.2156C7.34803 19.7385 8.63398 20 9.99999 20ZM9.99999 18.3333C8.84313 18.3333 7.76143 18.1176 6.7549 17.6863C5.74836 17.2549 4.86437 16.6585 4.10293 15.8971C3.3415 15.1356 2.74673 14.2517 2.31862 13.2451C1.89052 12.2386 1.67647 11.1569 1.67647 9.99999C1.67647 8.84313 1.89052 7.76143 2.31862 6.7549C2.74673 5.74836 3.33987 4.86274 4.09803 4.09803C4.8562 3.33333 5.73855 2.73692 6.74509 2.30882C7.75163 1.88072 8.83332 1.66667 9.99018 1.66667C11.1471 1.66667 12.2288 1.88072 13.2353 2.30882C14.2418 2.73692 15.1274 3.33333 15.8922 4.09803C16.6569 4.86274 17.2549 5.74836 17.6863 6.7549C18.1176 7.76143 18.3333 8.84313 18.3333 9.99999C18.3333 11.1569 18.1193 12.2386 17.6912 13.2451C17.263 14.2517 16.6683 15.1356 15.9068 15.8971C15.1454 16.6585 14.2598 17.2549 13.2499 17.6863C12.2402 18.1176 11.1569 18.3333 9.99999 18.3333Z" fill="white"/>
</svg>
