<svg width="67" height="68" viewBox="0 0 67 68" fill="none" xmlns="http://www.w3.org/2000/svg">
<g clip-path="url(#clip0_511_9458)">
<path d="M33.7234 0.842285C26.4088 0.850318 19.3962 3.75957 14.224 8.93175C9.05181 14.1039 6.14255 21.1166 6.13452 28.4311C6.13452 43.0036 29.3092 63.0083 31.9411 65.243L33.7234 66.7493L35.5056 65.243C38.1376 63.0083 61.3122 43.0036 61.3122 28.4311C61.3042 21.1166 58.395 14.1039 53.2228 8.93175C48.0506 3.75957 41.0379 0.850318 33.7234 0.842285V0.842285ZM33.7234 42.2256C30.9951 42.2256 28.3281 41.4165 26.0596 39.9008C23.7911 38.385 22.0231 36.2306 20.979 33.71C19.9349 31.1894 19.6617 28.4158 20.194 25.74C20.7263 23.0641 22.0401 20.6062 23.9692 18.677C25.8984 16.7478 28.3564 15.434 31.0322 14.9018C33.7081 14.3695 36.4817 14.6427 39.0023 15.6868C41.5229 16.7308 43.6773 18.4989 45.193 20.7674C46.7088 23.0359 47.5178 25.7029 47.5178 28.4311C47.5134 32.0883 46.0587 35.5944 43.4727 38.1804C40.8867 40.7664 37.3805 42.2212 33.7234 42.2256Z" fill="#DCFF00"/>
<path d="M33.7229 36.7086C38.294 36.7086 41.9996 33.003 41.9996 28.4319C41.9996 23.8609 38.294 20.1553 33.7229 20.1553C29.1519 20.1553 25.4463 23.8609 25.4463 28.4319C25.4463 33.003 29.1519 36.7086 33.7229 36.7086Z" fill="#DCFF00"/>
</g>
<defs>
<clipPath id="clip0_511_9458">
<rect width="66.2133" height="66.2133" fill="white" transform="translate(0.616333 0.842285)"/>
</clipPath>
</defs>
</svg>
