<svg width="24" height="24" viewBox="0 0 24 24" fill="none" xmlns="http://www.w3.org/2000/svg">
<path d="M3 10.2803C3 11.2838 3.19038 12.225 3.57114 13.1039C3.9519 13.9828 4.48005 14.7567 5.15559 15.4258C5.83112 16.0948 6.6126 16.6178 7.50001 16.9949C8.38742 17.372 9.33778 17.5605 10.3511 17.5605C11.1495 17.5605 11.911 17.4389 12.6356 17.1956C13.3603 16.9523 14.0236 16.6178 14.6254 16.1921L19.1576 20.6897C19.2682 20.7932 19.3895 20.8708 19.5215 20.9225C19.6535 20.9742 19.7933 21 19.9407 21C20.1495 21 20.3337 20.9529 20.4934 20.8586C20.653 20.7643 20.7774 20.635 20.8664 20.4709C20.9555 20.3066 21 20.1241 21 19.9234C21 19.7775 20.9739 19.6407 20.9217 19.5129C20.8695 19.3852 20.7943 19.2727 20.6961 19.1754L16.1914 14.6868C16.6643 14.0786 17.0343 13.4004 17.3014 12.6523C17.5686 11.9042 17.7021 11.1135 17.7021 10.2803C17.7021 9.27673 17.5118 8.33552 17.1311 7.45666C16.7503 6.5778 16.2221 5.80385 15.5466 5.13482C14.8711 4.46579 14.0896 3.94273 13.2021 3.56564C12.3147 3.18855 11.3644 3 10.3511 3C9.33778 3 8.38742 3.18855 7.50001 3.56564C6.6126 3.94273 5.83112 4.46579 5.15559 5.13482C4.48005 5.80385 3.9519 6.5778 3.57114 7.45666C3.19038 8.33552 3 9.27673 3 10.2803ZM4.57523 10.2803C4.57523 9.4896 4.72416 8.74911 5.022 8.05879C5.31986 7.36847 5.7344 6.76026 6.26561 6.23415C6.79683 5.70806 7.41096 5.29751 8.10799 5.00253C8.80503 4.70755 9.55273 4.56006 10.3511 4.56006C11.1495 4.56006 11.8971 4.70755 12.5942 5.00253C13.2912 5.29751 13.9038 5.70806 14.4319 6.23415C14.9601 6.76026 15.3746 7.36847 15.6756 8.05879C15.9765 8.74911 16.1269 9.4896 16.1269 10.2803C16.1269 11.0709 15.9765 11.8114 15.6756 12.5018C15.3746 13.1921 14.9601 13.7988 14.4319 14.3218C13.9038 14.8449 13.2912 15.2554 12.5942 15.5535C11.8971 15.8515 11.1495 16.0005 10.3511 16.0005C9.55273 16.0005 8.80503 15.8515 8.10799 15.5535C7.41096 15.2554 6.79683 14.8449 6.26561 14.3218C5.7344 13.7988 5.31986 13.1921 5.022 12.5018C4.72416 11.8114 4.57523 11.0709 4.57523 10.2803ZM6.91387 10.8011H9.57337C9.70877 10.8011 9.77648 10.8703 9.77648 11.0086V13.6047C9.77648 13.7933 9.82937 13.9253 9.93516 14.0007C10.0409 14.0762 10.1563 14.0982 10.2811 14.0668C10.4059 14.0353 10.5001 13.9525 10.5635 13.8184L13.3817 7.87181C13.4579 7.70837 13.4706 7.56169 13.4198 7.43177C13.369 7.30186 13.277 7.21176 13.1437 7.16148C13.0104 7.11119 12.8613 7.12376 12.6962 7.19919L6.70441 10.0216C6.56477 10.0845 6.48014 10.1788 6.45053 10.3045C6.42091 10.4302 6.44418 10.5444 6.52035 10.6471C6.59652 10.7498 6.72769 10.8011 6.91387 10.8011Z" fill="black"/>
</svg>
