<svg width="22" height="20" viewBox="0 0 22 20" fill="none" xmlns="http://www.w3.org/2000/svg">
<path d="M11 20C11.1182 20 11.253 19.9691 11.4043 19.9074C11.5557 19.8457 11.6905 19.7785 11.8087 19.7059C13.8913 18.3987 15.6951 17.0279 17.2201 15.5937C18.7451 14.1594 19.923 12.6852 20.7538 11.1711C21.5846 9.65688 22 8.12636 22 6.57952C22 5.61365 21.8431 4.72948 21.5292 3.92701C21.2154 3.12454 20.7797 2.42919 20.222 1.84095C19.6645 1.25272 19.0109 0.798839 18.2613 0.479302C17.5117 0.159767 16.7013 0 15.8299 0C14.7516 0 13.8026 0.270515 12.9829 0.811544C12.1631 1.35258 11.5022 2.07335 11 2.97386C10.5052 2.08061 9.84795 1.36166 9.02821 0.816988C8.20847 0.272329 7.2558 0 6.1702 0C5.29877 0 4.4901 0.159767 3.74421 0.479302C2.99832 0.798839 2.34475 1.25272 1.78349 1.84095C1.22223 2.42919 0.78466 3.12454 0.470796 3.92701C0.156932 4.72948 0 5.61365 0 6.57952C0 8.12636 0.415407 9.65688 1.24622 11.1711C2.07704 12.6852 3.25681 14.1594 4.78551 15.5937C6.31421 17.0279 8.11985 18.3987 10.2024 19.7059C10.3206 19.7785 10.4554 19.8457 10.6068 19.9074C10.7582 19.9691 10.8892 20 11 20ZM7.38873 11.1111C7.38873 11.0022 7.43673 10.8933 7.53274 10.7843L12.1077 5.13071C12.2185 4.98547 12.3441 4.91467 12.4845 4.91829C12.6247 4.92193 12.7336 4.97821 12.8111 5.08714C12.8887 5.19607 12.8906 5.34132 12.8167 5.52288L11.3213 9.49891H14.146C14.2494 9.49891 14.3399 9.5334 14.4175 9.60239C14.495 9.67138 14.5338 9.75671 14.5338 9.85838C14.5338 9.97457 14.4821 10.0835 14.3787 10.1852L9.8258 15.8387C9.70764 15.9768 9.5784 16.044 9.43808 16.0403C9.29777 16.0367 9.18884 15.9804 9.1113 15.8714C9.03375 15.7625 9.02821 15.6209 9.09468 15.4467L10.6123 11.4596H7.76537C7.66936 11.4596 7.58259 11.4252 7.50505 11.3562C7.4275 11.2872 7.38873 11.2055 7.38873 11.1111Z" fill="#464646"/>
</svg>
