<svg width="18" height="18" viewBox="0 0 18 18" fill="none" xmlns="http://www.w3.org/2000/svg">
<path d="M2.22728 18H15.7727C16.3115 18 16.7341 17.8815 17.0404 17.6446C17.3468 17.4076 17.5 17.0823 17.5 16.6685C17.5 16.0277 17.3031 15.3503 16.9092 14.6362C16.5152 13.9221 15.9496 13.253 15.2121 12.629C14.4748 12.005 13.5825 11.4977 12.5353 11.1073C11.4882 10.7168 10.3081 10.5216 8.99497 10.5216C7.68857 10.5216 6.5118 10.7168 5.46466 11.1073C4.41752 11.4977 3.52358 12.005 2.78283 12.629C2.04209 13.253 1.47643 13.9221 1.08586 14.6362C0.695287 15.3503 0.5 16.0277 0.5 16.6685C0.5 17.0823 0.653199 17.4076 0.959597 17.6446C1.266 17.8815 1.68856 18 2.22728 18ZM9.00508 8.72968C9.72562 8.72968 10.3923 8.53446 11.005 8.14403C11.6178 7.75359 12.1111 7.22468 12.4849 6.55727C12.8586 5.88987 13.0455 5.13903 13.0455 4.30477C13.0455 3.48386 12.8586 2.74804 12.4849 2.09732C12.1111 1.44661 11.6178 0.934372 11.005 0.560622C10.3923 0.186874 9.72562 0 9.00508 0C8.28453 0 7.61786 0.190211 7.00507 0.570632C6.39227 0.951056 5.89901 1.4683 5.52527 2.12235C5.15153 2.77641 4.96466 3.51056 4.96466 4.3248C4.96466 5.15238 5.15153 5.8982 5.52527 6.56227C5.89901 7.22634 6.39227 7.75359 7.00507 8.14403C7.61786 8.53446 8.28453 8.72968 9.00508 8.72968Z" fill="#464646"/>
</svg>
