<svg width="24" height="10" viewBox="0 0 24 10" fill="none" xmlns="http://www.w3.org/2000/svg">
<path d="M24 2.48155C24 1.66359 23.776 1.04551 23.3281 0.627306C22.8802 0.209102 22.2149 0 21.3322 0H2.65794C1.78177 0 1.11974 0.209102 0.671842 0.627306C0.223947 1.04551 0 1.66359 0 2.48155L0.00980792 7.51845C0.00980792 8.33641 0.233755 8.95449 0.681651 9.37269C1.12955 9.7909 1.79158 10 2.66775 10H21.342C22.2248 10 22.8884 9.7909 23.333 9.37269C23.7777 8.95449 24 8.33641 24 7.51845V2.48155ZM22.4111 2.74908V7.25093C22.4111 7.66298 22.2967 7.97663 22.0679 8.19188C21.839 8.40714 21.5121 8.51476 21.087 8.51476H2.90314C2.48467 8.51476 2.16101 8.40714 1.93216 8.19188C1.70331 7.97663 1.58888 7.66298 1.58888 7.25093V2.74908C1.58888 2.33087 1.70331 2.01569 1.93216 1.80351C2.16101 1.59133 2.48794 1.48524 2.91295 1.48524H21.0969C21.5154 1.48524 21.839 1.59133 22.0679 1.80351C22.2967 2.01569 22.4111 2.33087 22.4111 2.74908ZM3.76624 0.968638H2.96199V5.95941C2.96199 6.06397 3.00123 6.1516 3.07969 6.22233C3.15815 6.29305 3.25296 6.32534 3.36412 6.31919C3.48181 6.31919 3.57662 6.28383 3.64854 6.2131C3.72047 6.14237 3.75643 6.05474 3.75643 5.95018L3.76624 0.968638ZM5.50225 0.968638H4.69799V4.33579C4.69799 4.4465 4.73722 4.53721 4.81569 4.60794C4.89415 4.67866 4.98569 4.71095 5.09031 4.70479C5.21455 4.69865 5.31263 4.66175 5.38455 4.5941C5.45647 4.52644 5.49244 4.43727 5.49244 4.32657L5.50225 0.968638ZM7.22844 0.968638H6.41438V4.33579C6.41438 4.4465 6.45361 4.53721 6.53208 4.60794C6.61054 4.67866 6.70535 4.71095 6.81651 4.70479C6.9342 4.69865 7.03065 4.66175 7.10584 4.5941C7.18104 4.52644 7.21863 4.43727 7.21863 4.32657L7.22844 0.968638ZM8.94483 0.968638H8.14058V4.33579C8.14058 4.4465 8.17981 4.53721 8.25827 4.60794C8.33673 4.67866 8.43154 4.71095 8.5427 4.70479C8.6604 4.69865 8.7552 4.66175 8.82713 4.5941C8.89905 4.52644 8.93501 4.43727 8.93501 4.32657L8.94483 0.968638ZM10.6809 0.968638H9.87657V4.33579C9.87657 4.4465 9.91581 4.53721 9.99427 4.60794C10.0728 4.67866 10.1643 4.71095 10.2689 4.70479C10.3932 4.69865 10.4912 4.66175 10.5632 4.5941C10.6351 4.52644 10.671 4.43727 10.671 4.32657L10.6809 0.968638ZM12.4168 0.968638H11.6126V5.95941C11.6126 6.06397 11.6518 6.1516 11.7303 6.22233C11.8088 6.29305 11.9003 6.32534 12.0049 6.31919C12.1291 6.31919 12.2272 6.28383 12.2991 6.2131C12.3711 6.14237 12.407 6.05474 12.407 5.95018L12.4168 0.968638ZM14.143 0.968638H13.3387V4.33579C13.3387 4.4465 13.3764 4.53721 13.4516 4.60794C13.5268 4.67866 13.62 4.71095 13.7311 4.70479C13.8488 4.69865 13.9453 4.66175 14.0205 4.5941C14.0957 4.52644 14.1333 4.43727 14.1333 4.32657L14.143 0.968638ZM15.8692 0.968638H15.065V4.33579C15.065 4.4465 15.1042 4.53721 15.1827 4.60794C15.2611 4.67866 15.356 4.71095 15.4671 4.70479C15.5848 4.69865 15.6796 4.66175 15.7515 4.5941C15.8234 4.52644 15.8594 4.43727 15.8594 4.32657L15.8692 0.968638ZM17.5954 0.968638H16.7912V4.33579C16.7912 4.4465 16.8304 4.53721 16.9088 4.60794C16.9873 4.67866 17.0789 4.71095 17.1835 4.70479C17.3077 4.69865 17.4058 4.66175 17.4777 4.5941C17.5497 4.52644 17.5856 4.43727 17.5856 4.32657L17.5954 0.968638ZM19.3314 0.968638H18.5272V4.33579C18.5272 4.4465 18.5648 4.53721 18.64 4.60794C18.7152 4.67866 18.8083 4.71095 18.9195 4.70479C19.0372 4.69865 19.1336 4.66175 19.2088 4.5941C19.284 4.52644 19.3216 4.43727 19.3216 4.32657L19.3314 0.968638ZM21.0576 0.968638H20.2533V5.95941C20.2533 6.06397 20.2926 6.1516 20.371 6.22233C20.4495 6.29305 20.5443 6.32534 20.6555 6.31919C20.7732 6.31919 20.868 6.28383 20.9399 6.2131C21.0118 6.14237 21.0478 6.05474 21.0478 5.95018L21.0576 0.968638Z" fill="#464646"/>
</svg>
