<svg width="22" height="15" viewBox="0 0 22 15" fill="none" xmlns="http://www.w3.org/2000/svg">
<path fill-rule="evenodd" clip-rule="evenodd" d="M0 0.978261C0 0.437982 0.4766 0 1.06452 0H20.9355C21.5234 0 22 0.437982 22 0.978261C22 1.51854 21.5234 1.95652 20.9355 1.95652H1.06452C0.4766 1.95652 0 1.51854 0 0.978261ZM0 7.5C0 6.95972 0.4766 6.52174 1.06452 6.52174H20.9355C21.5234 6.52174 22 6.95972 22 7.5C22 8.04028 21.5234 8.47826 20.9355 8.47826H1.06452C0.4766 8.47826 0 8.04028 0 7.5ZM0 14.0217C0 13.4815 0.4766 13.0435 1.06452 13.0435H20.9355C21.5234 13.0435 22 13.4815 22 14.0217C22 14.562 21.5234 15 20.9355 15H1.06452C0.4766 15 0 14.562 0 14.0217Z" fill="#DCFF00"/>
</svg>
